<svg width="830" height="550" viewBox="0 0 830 550" fill="none" xmlns="http://www.w3.org/2000/svg">
<g clip-path="url(#clip0_106_63)">
<path d="M830 539.5C830 545.307 644.205 550 415 550C185.795 550 0 545.273 0 539.5C0 533.727 185.795 529 415 529C644.205 529 830 533.693 830 539.5Z" fill="#1E1E1E" fill-opacity="0.24"/>
<path d="M688.739 138.42H232.78C213.168 138.42 197.269 154.329 197.269 173.953V419.211C197.269 438.836 213.168 454.745 232.78 454.745H688.739C708.351 454.745 724.25 438.836 724.25 419.211V173.953C724.25 154.329 708.351 138.42 688.739 138.42Z" fill="#6876AA"/>
<path d="M748.627 432.328V447.25C748.627 451.168 748.117 454.983 747.129 458.629C742.124 477.094 725.271 490.687 705.217 490.687H216.267C196.213 490.687 179.326 477.094 174.321 458.629C173.334 454.983 172.823 451.168 172.823 447.25V432.328C172.823 408.344 192.264 388.891 216.267 388.891H705.217C729.187 388.891 748.627 408.344 748.627 432.328Z" fill="#40507F"/>
<path d="M211.671 543.425H209.458C203.976 543.425 199.38 539.371 198.631 533.954L190.868 476.31H225.051L222.566 532.966C222.293 538.792 217.493 543.425 211.671 543.425Z" fill="#40507F"/>
<path d="M710.018 543.425H712.231C717.713 543.425 722.309 539.371 723.058 533.954L730.821 476.31H696.638L699.123 532.966C699.395 538.792 704.196 543.425 710.018 543.425Z" fill="#40507F"/>
<path d="M193.353 422.516C222.612 422.516 246.331 398.783 246.331 369.506C246.331 340.229 222.612 316.495 193.353 316.495C164.095 316.495 140.376 340.229 140.376 369.506C140.376 398.783 164.095 422.516 193.353 422.516Z" fill="#6876AA"/>
<path d="M375.982 154.807H236.151C235.674 154.807 235.299 154.432 235.299 153.955C235.299 153.478 235.674 153.103 236.151 153.103H375.982C376.459 153.103 376.833 153.478 376.833 153.955C376.833 154.432 376.459 154.807 375.982 154.807Z" fill="#92B4EA"/>
<path d="M747.129 458.629C742.124 477.094 725.271 490.687 705.217 490.687H216.267C196.213 490.687 179.326 477.094 174.321 458.629H747.129Z" fill="#39476B"/>
<path d="M193.353 393.047C206.347 393.047 216.88 382.507 216.88 369.506C216.88 356.504 206.347 345.964 193.353 345.964C180.36 345.964 169.827 356.504 169.827 369.506C169.827 382.507 180.36 393.047 193.353 393.047Z" fill="#40507F"/>
<path d="M167.818 358.468H15.2191C6.80942 358.468 0 351.654 0 343.239C0 334.824 6.80942 328.01 15.2191 328.01H167.818C176.228 328.01 183.037 334.824 183.037 343.239C183.037 351.654 176.228 358.468 167.818 358.468Z" fill="#B79A9A"/>
<path d="M35.0345 544.753C30.4721 544.753 26.761 541.04 26.761 536.475V353.528C26.761 348.962 30.4721 345.249 35.0345 345.249C39.5968 345.249 43.3079 348.962 43.3079 353.528V536.475C43.3079 541.04 39.5968 544.753 35.0345 544.753Z" fill="#B79A9A"/>
<path d="M149.637 544.753C145.075 544.753 141.364 541.04 141.364 536.475V353.528C141.364 348.962 145.075 345.249 149.637 345.249C154.199 345.249 157.91 348.962 157.91 353.528V536.475C157.91 541.04 154.199 544.753 149.637 544.753Z" fill="#B79A9A"/>
<path d="M140.138 277.623H101.631V328.01H140.138V277.623Z" fill="#F7B369"/>
<path d="M120.901 279.838C131.544 279.838 140.172 278.846 140.172 277.623C140.172 276.4 131.544 275.409 120.901 275.409C110.258 275.409 101.631 276.4 101.631 277.623C101.631 278.846 110.258 279.838 120.901 279.838Z" fill="white"/>
<path d="M140.172 324.093C132.239 324.093 125.77 315.746 125.77 305.491C125.77 295.237 132.239 286.89 140.172 286.89C148.105 286.89 154.574 295.237 154.574 305.491C154.574 315.746 148.105 324.093 140.172 324.093ZM140.172 290.263C134.111 290.263 129.175 297.076 129.175 305.457C129.175 313.838 134.111 320.652 140.172 320.652C146.232 320.652 151.169 313.838 151.169 305.457C151.169 297.076 146.232 290.263 140.172 290.263Z" fill="#F7B369"/>
<path d="M538.182 337.311L537.433 334.926C536.752 332.712 530.828 313.157 534.88 309.171C535.459 308.591 536.548 308.046 538.285 308.625C539.783 309.137 540.906 310.159 541.655 311.726C544.992 318.676 539.306 334.313 539.034 334.994L538.182 337.345V337.311ZM536.923 310.056C536.48 310.056 536.242 310.227 536.106 310.363C533.858 312.577 536.037 323.752 538.319 331.792C539.783 327.091 542.404 317.177 540.157 312.407C539.612 311.283 538.829 310.533 537.774 310.193C537.433 310.09 537.161 310.022 536.923 310.022V310.056Z" fill="#6876AA"/>
<path d="M113.513 112.63C144.595 112.63 169.793 87.417 169.793 56.315C169.793 25.2131 144.595 0 113.513 0C82.4305 0 57.2332 25.2131 57.2332 56.315C57.2332 87.417 82.4305 112.63 113.513 112.63Z" fill="#D3BCBC"/>
<path d="M585.644 163.596C585.644 163.596 592.317 146.937 624.322 147.652C656.326 148.402 660.275 167.787 660.275 167.787L604.438 187.955L585.644 163.596Z" fill="#68B6D8"/>
<path d="M113.513 97.5037C136.247 97.5037 154.676 79.0629 154.676 56.315C154.676 33.5672 136.247 15.1264 113.513 15.1264C90.7793 15.1264 72.3501 33.5672 72.3501 56.315C72.3501 79.0629 90.7793 97.5037 113.513 97.5037Z" fill="#EAE0E0"/>
<path d="M113.513 87.1469C112.56 87.1469 111.811 86.3974 111.811 85.4435V56.3491C111.811 55.804 112.083 55.2589 112.526 54.9523L140.376 35.4993C141.125 34.9542 142.215 35.1586 142.759 35.9081C143.304 36.6916 143.1 37.7478 142.351 38.2929L115.249 57.2349V85.4435C115.249 86.3974 114.5 87.1469 113.547 87.1469H113.513Z" fill="#3A4970"/>
<path d="M552.005 427.797C611.312 427.797 659.39 420.018 659.39 410.422C659.39 400.826 611.312 393.047 552.005 393.047C492.699 393.047 444.621 400.826 444.621 410.422C444.621 420.018 492.699 427.797 552.005 427.797Z" fill="#364568"/>
<path d="M522.384 297.519C522.384 297.519 428.687 229.893 360.354 236.23C292.022 242.533 363.18 417.474 363.18 417.474L456.708 416.179L456.537 385.279L571.31 402.927L531.85 323.309L522.419 297.553L522.384 297.519Z" fill="#7C576C"/>
<path d="M431.547 304.571C431.206 304.571 430.9 304.367 430.764 304.06C430.696 303.924 424.329 289.343 414.523 277.964C414.217 277.623 414.251 277.078 414.626 276.772C414.966 276.465 415.511 276.499 415.817 276.874C425.793 288.491 432.262 303.277 432.33 303.413C432.5 303.856 432.33 304.333 431.887 304.537C431.785 304.571 431.649 304.605 431.547 304.605V304.571Z" fill="#3A4970"/>
<path d="M660.275 353.732C660.275 353.732 698.851 214.358 666.37 176.031C633.889 137.67 558.474 169.626 558.474 169.626L522.385 297.519L660.275 353.732Z" fill="#A37B90"/>
<path d="M638.281 136.819L637.668 161.689C637.668 161.689 633.004 168.741 618.465 169.558C607.604 170.172 603.859 167.616 603.859 167.616L605.664 155.079L607.468 142.849L633.855 137.704L638.281 136.853V136.819Z" fill="#FFB192"/>
<path d="M477.579 249.721C477.579 249.721 540.532 175.146 562.322 168.127C591.262 158.827 562.935 277.453 562.935 277.453L519.354 280.792L477.579 249.721Z" fill="#A37B90"/>
<path d="M633.446 139.817C633.378 140.464 633.106 141.213 632.663 142.099C626.841 153.887 611.724 156.135 605.528 156.544L607.332 144.791L633.446 139.817Z" fill="black"/>
<path d="M544.038 252.515C544.038 252.515 543.902 252.515 543.868 252.515C543.426 252.413 543.119 251.97 543.221 251.493L554.525 200.254C554.627 199.811 555.104 199.504 555.546 199.607C555.989 199.709 556.295 200.152 556.193 200.629L544.89 251.868C544.788 252.276 544.447 252.549 544.073 252.549L544.038 252.515Z" fill="white"/>
<path d="M604.2 90.2812C604.2 90.2812 590.955 119.853 595.484 136.58C600.012 153.308 615.197 150.821 624.321 147.652C633.446 144.518 637.702 138.965 637.702 138.965C637.702 138.965 646.18 141.929 651.9 134.059C657.654 126.223 654.249 117.127 649.414 114.981C644.58 112.834 638.792 116.309 638.792 116.309L643.388 107.724C643.388 107.724 624.764 63.7079 604.2 90.2471V90.2812Z" fill="#FFB192"/>
<path d="M605.221 127.927C604.847 127.927 604.506 127.688 604.404 127.314C602.463 121.011 606.923 114.606 607.128 114.334C607.4 113.959 607.945 113.857 608.319 114.129C608.694 114.402 608.796 114.947 608.524 115.321C608.49 115.39 604.37 121.318 606.038 126.837C606.174 127.279 605.936 127.756 605.459 127.893C605.391 127.893 605.289 127.927 605.221 127.927Z" fill="black"/>
<path d="M640.017 130.175C639.813 130.175 639.609 130.107 639.438 129.937C639.098 129.63 639.098 129.085 639.438 128.744L647.508 120.227C647.848 119.887 648.359 119.853 648.699 120.227C649.04 120.568 649.04 121.079 648.699 121.42L640.63 129.937C640.46 130.107 640.221 130.209 640.017 130.209V130.175Z" fill="black"/>
<path d="M648.563 127.927L642.877 127.075C642.401 127.007 642.094 126.564 642.162 126.087C642.23 125.61 642.673 125.304 643.15 125.372L648.733 126.223C649.21 126.291 649.516 126.734 649.448 127.211C649.38 127.62 649.006 127.927 648.597 127.927H648.563Z" fill="black"/>
<path d="M638.792 116.344C638.792 116.344 635.727 118.354 633.514 114.845C631.301 111.37 636.204 101.081 636.204 101.081C636.204 101.081 627.011 103.159 621.359 100.093C615.708 97.0268 612.916 88.68 612.916 88.68C612.916 88.68 608.728 97.3674 596.199 93.5177C583.669 89.668 581.32 72.5657 594.701 69.1248C608.081 65.6838 615.401 71.6117 615.401 71.6117C615.401 71.6117 617.138 59.2109 633.65 65.3772C648.699 70.9985 651.219 89.9065 651.219 89.9065C651.219 89.9065 660.275 90.3494 661.978 100.195C663.68 110.041 652.172 117.161 652.172 117.161C652.172 117.161 645.635 113.311 638.826 116.344H638.792Z" fill="black"/>
<path d="M618.704 116.889C618.125 116.82 617.784 116.378 617.853 115.935L618.568 110.416C618.636 109.939 619.044 109.632 619.521 109.666C619.998 109.734 620.304 110.143 620.27 110.62L619.555 116.139C619.487 116.582 619.146 116.889 618.704 116.889Z" fill="black"/>
<path d="M602.293 115.526C601.714 115.458 601.374 115.015 601.442 114.538L602.259 109.019C602.327 108.542 602.736 108.201 603.212 108.303C603.689 108.372 603.995 108.814 603.927 109.257L603.11 114.776C603.042 115.185 602.702 115.492 602.259 115.492L602.293 115.526Z" fill="black"/>
<path d="M623.845 106.293C623.538 106.293 623.232 106.123 623.096 105.816C621.734 103.125 618.057 103.875 617.887 103.909C617.444 104.011 616.967 103.704 616.865 103.261C616.763 102.818 617.069 102.341 617.512 102.239C617.716 102.205 622.619 101.183 624.594 105.033C624.798 105.442 624.628 105.953 624.219 106.191C624.083 106.259 623.947 106.293 623.845 106.293Z" fill="black"/>
<path d="M607.843 102.818C607.57 102.818 607.298 102.682 607.128 102.444C606.617 101.66 606.004 101.251 605.255 101.149C603.485 100.945 601.612 102.58 601.578 102.58C601.238 102.887 600.693 102.852 600.386 102.512C600.08 102.171 600.114 101.626 600.454 101.319C600.557 101.217 602.906 99.139 605.459 99.4797C606.685 99.65 607.741 100.297 608.558 101.49C608.83 101.864 608.728 102.41 608.319 102.682C608.183 102.784 608.013 102.818 607.843 102.818Z" fill="black"/>
<path d="M453.133 436.314C449.524 450.043 353.239 457.198 349.596 457.845C345.987 458.492 318.17 456.244 309.045 451.236C302.44 447.624 308.024 425.071 314.357 418.666C320.69 412.262 339.824 409.911 339.824 409.911L399.475 377.035L458.274 382.315C458.274 382.315 455.38 427.763 453.133 436.348V436.314Z" fill="#F7B369"/>
<path d="M273.568 438.051C259.473 439.755 217.493 352.744 215.552 349.61C213.611 346.475 205.508 319.766 206.802 309.443C207.755 301.982 230.771 298.882 239.045 302.425C247.318 305.968 256.545 322.934 256.545 322.934L308.977 366.371L325.66 423.061C325.66 423.061 282.318 437.063 273.568 438.119V438.051Z" fill="#FFCB97"/>
<path d="M629.769 356.526C629.769 356.526 629.599 356.526 629.497 356.526C628.918 356.389 628.577 355.776 628.748 355.231L632.186 342.285C632.323 341.706 632.935 341.365 633.48 341.536C634.059 341.672 634.399 342.285 634.229 342.83L630.79 355.776C630.654 356.253 630.246 356.56 629.769 356.56V356.526Z" fill="#534579"/>
<path d="M600.999 252.651C600.999 252.651 559.768 244.134 553.367 243.453C546.967 242.771 522.759 269.788 523.338 272.343C523.951 274.898 536.684 272.513 536.684 272.513C536.684 272.513 548.669 287.946 552.721 289.581C556.772 291.217 566.339 288.559 567.327 285.663C568.314 282.802 564.875 278.645 564.875 278.645C564.875 278.645 572.842 289.82 588.334 290.535C603.825 291.251 604.949 275.034 604.949 275.034L600.965 252.651H600.999Z" fill="#FFB192"/>
<path d="M528.343 324.058C527.73 324.058 527.253 323.547 527.287 322.968L527.662 309.171C527.662 308.591 528.138 308.114 528.717 308.114C529.33 308.114 529.807 308.625 529.773 309.205L529.398 323.002C529.398 323.582 528.922 324.058 528.343 324.058Z" fill="#534579"/>
<path d="M539.715 332.61C539.136 332.61 538.659 332.133 538.659 331.554V316.938C538.659 316.359 539.17 315.882 539.749 315.882C540.327 315.882 540.804 316.359 540.804 316.938V331.554C540.804 332.133 540.293 332.61 539.715 332.61Z" fill="#534579"/>
<path d="M612.269 136.308C611.656 136.308 611.009 136.239 610.328 136.035C609.886 135.899 609.613 135.456 609.715 134.979C609.852 134.536 610.294 134.263 610.771 134.366C615.231 135.524 617.819 131.334 617.921 131.163C618.159 130.754 618.67 130.618 619.078 130.857C619.487 131.095 619.623 131.606 619.385 132.015C618.431 133.65 615.844 136.274 612.269 136.274V136.308Z" fill="black"/>
<path d="M660.275 353.732C660.275 353.732 528.717 271.661 467.194 284.164C417.554 294.249 286.03 338.061 286.03 338.061L328.384 435.292C328.384 435.292 477.681 394.716 490.346 396.147C504.986 397.782 587.414 432.464 616.763 423.027C646.078 413.59 660.275 353.766 660.275 353.766V353.732Z" fill="#936F83"/>
<path d="M487.656 396.965C487.418 396.965 487.214 396.863 487.044 396.692C485.307 394.921 470.292 379.113 472.642 372.878C473.221 371.379 474.616 370.528 476.83 370.357C479.349 370.153 481.494 370.937 483.264 372.674C489.563 378.909 488.542 395.466 488.508 396.147C488.508 396.488 488.269 396.76 487.963 396.897C487.861 396.931 487.759 396.965 487.656 396.965ZM477.579 372.027C477.374 372.027 477.17 372.027 476.966 372.027C474.719 372.197 474.344 373.151 474.242 373.458C472.71 377.512 481.834 388.55 486.873 394.001C486.941 389.436 486.601 378.329 482.073 373.866C480.813 372.606 479.349 371.993 477.579 371.993V372.027Z" fill="#3A4970"/>
<path d="M649.687 163.392C649.687 163.392 757.275 216.334 732.83 300.892C713.116 369.029 594.53 309.171 594.53 309.171L600.999 245.02L662.114 251.561L649.653 163.392H649.687Z" fill="#A37B90"/>
<path d="M696.604 250.096C662.659 244.543 624.798 248.427 624.424 248.461C623.947 248.529 623.538 248.188 623.47 247.711C623.436 247.234 623.777 246.825 624.219 246.757C624.594 246.723 662.693 242.805 696.706 248.393C697.182 248.461 697.489 248.904 697.421 249.381C697.353 249.789 696.978 250.096 696.569 250.096H696.604Z" fill="white"/>
<path d="M664.769 246.383C664.429 246.383 664.089 246.178 663.986 245.837C663.85 245.497 663.986 245.122 664.225 244.884C664.769 244.441 677.707 233.845 685.538 234.595C687.343 234.765 688.773 235.515 689.794 236.775C690.986 238.24 690.816 239.467 690.475 240.216C688.092 245.429 667.153 246.314 664.804 246.383H664.769ZM684.653 236.264C679.205 236.264 671.17 241.749 667.425 244.577C676.005 244.066 687.649 242.431 688.943 239.535C689.079 239.228 689.181 238.751 688.466 237.865C687.717 236.946 686.696 236.435 685.368 236.298C685.13 236.298 684.891 236.298 684.653 236.298V236.264Z" fill="white"/>
<path d="M775.322 374.514C780.03 345.619 760.438 318.375 731.56 313.664C702.683 308.953 675.457 328.558 670.749 357.454C666.04 386.349 685.633 413.592 714.511 418.303C743.388 423.014 770.614 403.409 775.322 374.514Z" fill="#6876AA"/>
<path d="M723.058 389.572C736.051 389.572 746.585 379.032 746.585 366.031C746.585 353.029 736.051 342.489 723.058 342.489C710.065 342.489 699.532 353.029 699.532 366.031C699.532 379.032 710.065 389.572 723.058 389.572Z" fill="#40507F"/>
<path d="M587.346 160.803L590.172 165.095C593.066 169.524 596.437 173.647 600.216 177.36L606.311 183.39C606.311 183.39 630.756 179.132 643.013 175.588C655.236 172.045 660.275 167.787 660.275 167.787C660.275 167.787 652.921 159.338 648.12 157.157C643.32 154.977 638.315 153.955 638.315 153.955L614.618 165.504L601.033 153.955L587.346 160.769V160.803Z" fill="#68B6D8"/>
<path d="M624.73 201.276C624.39 201.276 624.049 201.072 623.947 200.731L618.261 185.979C618.091 185.536 618.295 185.059 618.738 184.889C619.146 184.719 619.657 184.923 619.827 185.366L625.513 200.118C625.683 200.561 625.479 201.038 625.036 201.208C624.934 201.242 624.832 201.276 624.73 201.276Z" fill="white"/>
<path d="M591.262 196.745C591.262 196.745 590.989 196.745 590.853 196.643C590.445 196.438 590.274 195.927 590.479 195.484L597.016 182.981C597.22 182.572 597.765 182.402 598.173 182.607C598.582 182.811 598.752 183.322 598.548 183.765L592.011 196.268C591.875 196.541 591.568 196.711 591.262 196.711V196.745Z" fill="white"/>
<path d="M564.943 279.497C564.671 279.497 564.399 279.361 564.228 279.088L559.768 272.104C559.53 271.695 559.632 271.184 560.041 270.912C560.449 270.673 560.96 270.775 561.232 271.184L564.773 276.737L566.782 271.355C566.952 270.912 567.429 270.707 567.871 270.844C568.314 271.014 568.518 271.491 568.382 271.934L565.76 278.918C565.658 279.224 565.386 279.429 565.046 279.463C565.046 279.463 564.977 279.463 564.943 279.463V279.497Z" fill="black"/>
<path d="M536.718 273.365C536.548 273.365 536.344 273.297 536.174 273.194C535.799 272.888 535.731 272.377 536.037 272.002L550.712 253.571C551.018 253.196 551.529 253.128 551.903 253.435C552.278 253.741 552.346 254.252 552.04 254.627L537.365 273.058C537.195 273.263 536.957 273.365 536.684 273.365H536.718Z" fill="black"/>
<path d="M600.795 247.302L595.756 297.247C595.654 298.337 596.335 299.359 597.424 299.631C601.578 300.653 611.52 303.106 614.584 303.72C618.534 304.537 623.198 247.439 620.781 247.166L603.246 245.292C602.021 245.156 600.897 246.042 600.795 247.302Z" fill="#68B6D8"/>
<path d="M543.766 290.365L436.416 284.13L409.791 212.961L512.919 218.957C515.507 219.094 517.72 220.763 518.639 223.182L543.766 290.399V290.365Z" fill="white"/>
<path d="M534.437 289.854L427.087 283.619L403.322 220.082C401.96 216.471 404.786 212.689 408.599 212.893L507.778 218.651L534.403 289.82L534.437 289.854Z" fill="#F7B369"/>
<path d="M563.411 297.451L428.993 289.615C426.951 289.513 425.384 287.742 425.521 285.697C425.623 283.653 427.393 282.086 429.436 282.222L563.854 290.058C565.897 290.16 567.463 291.932 567.327 293.976C567.225 296.02 565.454 297.587 563.411 297.451Z" fill="black"/>
<path d="M477.987 251.731C477.681 256.773 473.391 260.623 468.352 260.317C463.313 260.01 459.466 255.717 459.772 250.675C460.078 245.633 464.368 241.783 469.407 242.09C474.446 242.397 478.294 246.689 477.987 251.731Z" fill="white"/>
</g>
<defs>
<clipPath id="clip0_106_63">
<rect width="830" height="550" fill="white"/>
</clipPath>
</defs>
</svg>
