<?xml version="1.0" encoding="UTF-8"?>
<svg id="Layer_2" data-name="Layer 2" xmlns="http://www.w3.org/2000/svg" viewBox="0 0 188.25 148.7">
  <defs>
    <style>
      .cls-1 {
        fill: #fff;
      }

      .cls-2 {
        fill: #f7b369;
      }

      .cls-3 {
        fill: #364568;
      }

      .cls-4 {
        fill: #a37b90;
      }

      .cls-5 {
        fill: #7b9b75;
      }

      .cls-6 {
        fill: #5a6991;
      }

      .cls-7 {
        fill: #ddd0d0;
      }

      .cls-8 {
        fill: #6876aa;
      }

      .cls-9 {
        fill: #68b6d8;
      }

      .cls-10 {
        fill: #b79a9a;
      }

      .cls-11 {
        fill: #f48462;
      }

      .cls-12 {
        fill: #40507f;
      }

      .cls-13 {
        fill: #a88;
      }
    </style>
  </defs>
  <g id="Layer_1-2" data-name="Layer 1">
    <path class="cls-7" d="m159.55,135.44c0,2.3-33.58,4.17-75,4.17s-75-1.87-75-4.17,33.58-4.17,75-4.17,75,1.87,75,4.17Z"/>
    <rect class="cls-6" x="52.85" y="6.54" width="100.82" height="95.34" rx="8.53" ry="8.53"/>
    <rect class="cls-8" x="35.08" y="6.54" width="100.82" height="95.34" rx="8.53" ry="8.53"/>
    <path class="cls-3" d="m153.52,98.55v5.73c0,1.51-.1,2.97-.28,4.37-.93,7.09-4.08,12.32-7.83,12.32H54.09c-3.75,0-6.9-5.22-7.83-12.32-.18-1.4-.28-2.87-.28-4.37v-5.73c0-9.21,3.63-16.69,8.11-16.69h91.33c4.48,0,8.11,7.47,8.11,16.69Z"/>
    <path class="cls-12" d="m140.57,98.78v5.73c0,1.51-.1,2.97-.29,4.37-.96,7.09-4.18,12.32-8.02,12.32H38.72c-3.84,0-7.07-5.22-8.02-12.32-.19-1.4-.29-2.87-.29-4.37v-5.73c0-9.21,3.72-16.69,8.31-16.69h93.54c4.59,0,8.31,7.47,8.31,16.69Z"/>
    <path class="cls-12" d="m47.26,136.83h-.67c-1.65,0-3.04-1.22-3.26-2.85l-2.34-17.37h10.31l-.75,17.08c-.08,1.76-1.53,3.15-3.29,3.15Z"/>
    <path class="cls-12" d="m67.47,136.83h-.67c-1.65,0-3.04-1.22-3.26-2.85l-2.34-17.37h10.31l-.75,17.08c-.08,1.76-1.53,3.15-3.29,3.15Z"/>
    <path class="cls-12" d="m124.19,136.83h.67c1.65,0,3.04-1.22,3.26-2.85l2.34-17.37h-10.31l.75,17.08c.08,1.76,1.53,3.15,3.29,3.15Z"/>
    <path class="cls-3" d="m144.61,135.63h.67c1.65,0,3.04-1.22,3.26-2.85l2.34-17.37h-10.31l.75,17.08c.08,1.76,1.53,3.15,3.29,3.15Z"/>
    <circle class="cls-8" cx="36.6" cy="80.31" r="15.98" transform="translate(-43.72 43.74) rotate(-41.02)"/>
    <circle class="cls-12" cx="36.6" cy="80.31" r="7.09"/>
    <path class="cls-3" d="m118.11,87.74c0,2.5-11.59,4.52-25.88,4.52s-25.88-2.02-25.88-4.52,11.59-4.52,25.88-4.52,25.88,2.02,25.88,4.52Z"/>
    <path class="cls-11" d="m61.91,113.69s1.66,10.15,1.27,10.85c-.39.7-9.26,14.35-8.9,17.4.36,3.05,2.84,3.71,2.84,3.71,0,0,28.87-21.46,29.44-22.72s-8.07-14.04-8.07-14.04l-16.57,4.8Z"/>
    <polygon points="55.94 145.03 85.73 120.6 88.83 124.81 58.53 148.61 55.94 145.03"/>
    <polygon points="57.07 134.84 59.79 130.06 67.51 135.54 64.47 139.39 57.07 134.84"/>
    <path class="cls-11" d="m25.63,122.55s-5.46,8.71-6.22,8.98c-.76.27-16.44,4.64-18.19,7.16-1.75,2.52-.33,4.66-.33,4.66,0,0,35.85,3,37.11,2.43,1.26-.57,3.96-22.01,3.96-22.01l-16.32-1.22Z"/>
    <polygon points=".43 142.11 38.93 143.49 38.47 148.7 0 146.51 .43 142.11"/>
    <polygon points="8.01 135.22 13.22 133.43 15.38 142.65 10.55 143.53 8.01 135.22"/>
    <polygon class="cls-4" points="67.24 77.28 85.68 112.38 60.44 123.77 49.31 102.54 55.01 78.3 67.24 77.28"/>
    <path class="cls-4" d="m101.13,63.86s1.68,17.21-3.04,19.41c-4.73,2.2-36.48,5.56-38.23,6.94-1.75,1.38-13.52,39.64-13.52,39.64l-28.79-2.57s10.4-50.87,17.98-55.55c5.69-3.52,37.21-7.86,37.21-7.86h28.39Z"/>
    <path class="cls-2" d="m52.79,111.22s-.06,0-.09-.02c-.13-.05-.19-.19-.14-.32.27-.69,6.58-16.88,7.81-18.34,1.23-1.46,10.54-3.68,11.6-3.93.13-.03.27.05.3.19.03.13-.05.27-.19.3-2.83.66-10.38,2.63-11.33,3.76-.94,1.12-5.46,12.39-7.72,18.2-.04.1-.13.16-.23.16Z"/>
    <path class="cls-2" d="m60.56,92.95s-.09-.01-.13-.04c-.2-.12-4.93-3.01-5.36-5.4-.1-.53.02-1,.33-1.4.37-.47.78-.52,1.05-.47,1.91.31,4.09,6.29,4.33,6.97.04.1,0,.21-.08.28-.05.04-.1.06-.16.06Zm-4.27-6.82c-.13,0-.3.05-.49.3-.23.29-.3.62-.24,1,.3,1.68,3.2,3.79,4.5,4.65-.8-2.07-2.47-5.75-3.68-5.95-.03,0-.06,0-.09,0Z"/>
    <path class="cls-11" d="m77,16.66l-2.71,2.91s-2.92,6.84-5.74,6.97-2.88-4.08-2.88-4.08l1.83-9.08,4.8,1.76s7.41-1.39,4.7,1.52Z"/>
    <rect x="70.33" y="4.57" width="9.15" height="16.2" rx="1.27" ry="1.27" transform="translate(135.43 58.6) rotate(-152.41)"/>
    <rect class="cls-9" x="71.22" y="5.04" width="9.15" height="16.2" rx="1.27" ry="1.27" transform="translate(136.9 59.89) rotate(-152.41)"/>
    <path d="m72.16,17.93c-.29.55-.12,1.21.37,1.46.49.26,1.12.02,1.41-.53.29-.55.12-1.21-.37-1.46s-1.12-.02-1.41.53Z"/>
    <path class="cls-11" d="m64.09,13.13s-1.65,12.7,1.23,12.7,7.17-5.82,4.05-9.74c-3.12-3.91-5.28-2.96-5.28-2.96Z"/>
    <path d="m91.37,4.98s9.65-7.83,18.16,7.38.02,24.75-10.8,20.62c-10.82-4.14-7.96-23.55-7.96-23.55l.6-4.44Z"/>
    <path d="m77.18,10.8s-1.73-4.04-1.4-5.81c.33-1.77,7.36-6.99,13.25-4.16s6.19,10.62,4.82,13.83c-3.54,8.25-10.64,4.35-10.64,4.35,0,0-11.35-3.61-6.03-8.21Z"/>
    <path class="cls-2" d="m101.71,64.91s-.02-32.3-1.93-34.49c-5.88-6.74-20-9-26.88-3.87-4.3,3.21-3.67,12.92-3.47,27.32.11,8.11.43,11.03.43,11.03h31.84Z"/>
    <path class="cls-11" d="m78.09,20.19v.16s-.04,3.03-.04,3.03l-.03,2.38s-.23.54,2.54.51c3.72-.06,5-1.58,5-1.58l.46-5.56-1.13.15-6.79.9Z"/>
    <path d="m78.09,20.35l-.03,3.03c1.81-.12,5.13-.72,6.6-3.48.11-.22.19-.43.22-.6l-6.79,1v.05Z"/>
    <path class="cls-11" d="m77.69,5.8s-3.87,7.7-2.87,12.19c1,4.5,5.08,4.02,7.54,3.29,2.46-.73,3.66-2.15,3.66-2.15,0,0,2.21.89,3.84-1.13,1.62-2.02.82-4.47-.44-5.1-1.26-.62-2.84.23-2.84.23l1.32-2.23s-4.42-11.91-10.21-5.11Z"/>
    <path d="m86.58,13.13s-3.36-1.93-4.49-4.46c-1.13-2.54-1.12-3.78-1.12-3.78,0,0-.58,1.6-1.85,1.93-1.27.32-2.05.33-2.05.33l-.91,2.27.78-5.49s3.49-1.66,3.94-1.64c.46.02,6.15,1.32,6.47,1.68.32.36,1.92,4.91,1.92,4.91l.03,2.02-2.71,2.23Z"/>
    <path class="cls-2" d="m70.46,52.03s-9.89,6.74-15.96,3.1c-7.37-4.42-1.27-22.52.6-26.63,1.88-4.11,5.78-10.04,5.78-10.04l10.75,7.38-1.56,12.29.38,13.9Z"/>
    <path class="cls-11" d="m66.26,12.18s-3.43-1.87-1.66-3.08c1.78-1.21,8.61.63,8.52,2.86-.09,2.23-6.86.22-6.86.22Z"/>
    <path class="cls-11" d="m65.45,15.31s-3.43-1.87-1.66-3.08,8.61.63,8.52,2.86c-.09,2.23-6.86.22-6.86.22Z"/>
    <path class="cls-11" d="m66.52,18.64c-.88-.06-1.74-.31-2.46-.81-.65-.44-1.13-1.05-.44-1.71,1.37-1.32,7.6-.75,7.86,1.21.19,1.46-3.21,1.42-4.95,1.31Z"/>
    <path class="cls-11" d="m75.37,56.7s-1.36,0-3.15-.4-8.5.72-10.81,1.09c-2.31.37-7.64,3.93-6.87,4.59.78.67,5.99-1,5.99-1,0,0-3.9,4.35-3.15,5.07.75.72,2.3-.34,2.3-.34,0,0-1.24,1.3.1,1.64,1.34.34,5.96-3.63,5.96-3.63,0,0-1.92,3.92-.99,4.24.93.32,4.06-3.36,4.06-3.36,0,0,4.59,2.8,6.97.26,2.38-2.54,2.87-4.44,2.87-4.44l-3.28-3.73Z"/>
    <path d="m59.62,65.43c.06-.01.11-.04.15-.09l4.2-4.71c.1-.12.09-.29-.02-.4-.12-.1-.29-.09-.4.02l-4.2,4.71c-.1.12-.09.29.02.4.07.06.16.08.24.07Z"/>
    <path d="m60.58,61.25c.06-.01.12-.04.16-.1l1.28-1.56c.1-.12.08-.3-.04-.4-.12-.1-.3-.08-.4.04l-1.28,1.56c-.1.12-.08.3.04.4.07.06.15.07.23.06Z"/>
    <path class="cls-2" d="m95.35,26.92s15.09,7.02,12.56,28.39c-1.75,14.8-34.55,11.8-34.55,11.8l-.45-13.34s17.12-4.65,18.45-5.37c2.57-1.4,3.98-21.48,3.98-21.48Z"/>
    <path class="cls-1" d="m33.73,71.09h29.89c.66,0,1.08-.76.76-1.37l-10.23-19.25c-.15-.29-.44-.47-.76-.47h-29.89c-.66,0-1.08.76-.76,1.37l10.23,19.25c.15.29.44.47.76.47Z"/>
    <path class="cls-9" d="m30.99,71.09h29.89c.66,0,1.08-.76.76-1.37l-10.23-19.25c-.15-.29-.44-.47-.76-.47h-29.89c-.66,0-1.08.76-.76,1.37l10.23,19.25c.15.29.44.47.76.47Z"/>
    <rect x="29.5" y="69.7" width="39.63" height="2.79" rx=".62" ry=".62" transform="translate(98.64 142.19) rotate(180)"/>
    <rect class="cls-6" x="112.55" y="64.33" width="41.12" height="31.96"/>
    <circle class="cls-8" cx="112.55" cy="80.31" r="15.98" transform="translate(13.49 176.77) rotate(-79.75)"/>
    <circle class="cls-12" cx="112.55" cy="80.31" r="7.09"/>
    <path class="cls-1" d="m74.71,54.13c-.09,0-.18-.05-.23-.14-.06-.13,0-.27.12-.33.1-.04,9.63-4.44,19.38-6.17.13-.02.27.07.29.2.02.14-.07.27-.2.29-9.69,1.72-19.16,6.09-19.26,6.13-.03.02-.07.02-.11.02Z"/>
    <path class="cls-1" d="m87.88,49.55c-.06,0-.12-.02-.16-.06-.09-.07-.11-.19-.06-.3.25-.51,2.44-5,4.29-4.4.37.12.46.37.48.51.15,1.12-3.34,3.5-4.41,4.2-.04.03-.09.04-.14.04Zm3.71-4.31c-.91,0-2.17,1.75-3.03,3.3,1.79-1.26,3.44-2.69,3.37-3.17,0-.01,0-.06-.14-.1-.06-.02-.13-.03-.2-.03Z"/>
    <path class="cls-1" d="m80.27,26.52c-1.68,0-2.81-.42-2.9-.46-.13-.05-.19-.19-.14-.32.05-.13.2-.19.32-.14.04.01,4.12,1.52,8.33-1.36.12-.08.27-.05.35.06.08.11.05.27-.06.35-2.17,1.49-4.28,1.87-5.89,1.87Z"/>
    <path class="cls-1" d="m69.44,55.36c-.14,0-.25-.11-.25-.25v-7.32c-.2-.38-1.21-2.44-1.2-5.76,0-3.6,2.34-8.01,2.44-8.2.07-.12.22-.17.34-.1.12.06.17.22.1.34-.02.04-2.38,4.49-2.38,7.96,0,3.47,1.16,5.56,1.17,5.58.02.04.03.08.03.12v7.38c0,.14-.11.25-.25.25Z"/>
    <path class="cls-1" d="m43.56,59.14c0,1.51-1.23,2.74-2.74,2.74s-2.74-1.23-2.74-2.74,1.23-2.74,2.74-2.74,2.74,1.23,2.74,2.74Z"/>
    <path class="cls-5" d="m175.51,79.92c-4.02,8.1-10.66,12.99-14.83,10.92-4.17-2.07-4.28-10.32-.26-18.42,4.02-8.1,10.66-12.99,14.83-10.92,4.17,2.07,4.28,10.32.26,18.42Z"/>
    <path class="cls-5" d="m132.52,79.34c7.88,4.44,12.42,11.32,10.14,15.38-2.28,4.05-10.52,3.74-18.41-.69s-12.42-11.32-10.14-15.38c2.28-4.05,10.52-3.74,18.41.69Z"/>
    <path class="cls-5" d="m130.87,112.08c-6.63-1-11.59-4.58-11.08-7.99.51-3.41,6.31-5.37,12.94-4.36,6.63,1,11.59,4.58,11.08,7.99-.51,3.41-6.31,5.37-12.94,4.36Z"/>
    <path class="cls-5" d="m169.15,88.72c7.22-5.44,15.35-6.85,18.15-3.13,2.8,3.72-.79,11.14-8.01,16.59-7.22,5.44-15.35,6.85-18.15,3.13-2.8-3.72.79-11.14,8.01-16.59Z"/>
    <path class="cls-1" d="m151.33,118.19c-.11,0-.21-.07-.24-.18-4.77-15.42-21.23-13.11-21.39-13.08-.14.02-.26-.07-.29-.21-.02-.14.07-.26.21-.28.17-.03,17.05-2.41,21.94,13.43.04.13-.03.27-.16.31-.03,0-.05.01-.07.01Z"/>
    <path class="cls-1" d="m152.7,117.03c-.11,0-.22-.08-.24-.19-4.39-18.85-20.83-29.55-21-29.65-.12-.07-.15-.23-.08-.35.08-.12.23-.15.35-.08.17.11,16.78,10.91,21.22,29.96.03.13-.05.27-.19.3-.02,0-.04,0-.06,0Z"/>
    <path class="cls-1" d="m151.59,124.62c-.12,0-.23-.09-.25-.22-2.36-18.46,16.92-51.65,17.12-51.99.07-.12.22-.16.34-.09.12.07.16.22.09.34-.19.33-19.39,33.38-17.05,51.67.02.14-.08.26-.22.28-.01,0-.02,0-.03,0Z"/>
    <path class="cls-1" d="m153.52,115.67c-.17-.02-.27-.15-.25-.28.02-.14,2.09-13.85,24.25-24.02.13-.06.27,0,.33.12.06.13,0,.27-.12.33-21.89,10.05-23.94,23.5-23.96,23.63-.02.13-.12.22-.25.22Z"/>
    <path class="cls-13" d="m164.23,144.3h-18.65c-1.01,0-1.86-.72-1.96-1.66l-2.85-27.17c-.11-1.09.79-2.03,1.96-2.03h24.36c1.16,0,2.07.94,1.96,2.03l-2.85,27.17c-.1.94-.95,1.66-1.96,1.66Z"/>
    <path class="cls-10" d="m160.1,144.3h-18.65c-1.01,0-1.86-.72-1.96-1.66l-2.85-27.17c-.11-1.09.79-2.03,1.96-2.03h24.36c1.16,0,2.07.94,1.96,2.03l-2.85,27.17c-.1.94-.95,1.66-1.96,1.66Z"/>
    <path d="m70.37,13.26s-.04,0-.06,0l-4.7-1.19c-.13-.03-.21-.17-.18-.3.03-.13.17-.21.3-.18l4.7,1.19c.13.03.21.17.18.3-.03.11-.13.19-.24.19Z"/>
    <path d="m70.37,16.2s-5.96-.93-5.96-.93c-.14-.02-.23-.15-.21-.29s.15-.23.29-.21l5.92.92c.14.02.23.15.21.29-.02.12-.13.21-.25.21Z"/>
    <path d="m79.71,18.71c-.76,0-1.18-.68-1.3-1.06-.02-.07-.01-.14.02-.2.04-.06.1-.1.17-.12l2.83-.52c.1-.02.2.02.25.1.06.08.06.19,0,.27-.09.15-.88,1.43-1.84,1.53-.05,0-.09,0-.13,0Zm-.7-.95c.13.22.39.48.78.45.4-.04.82-.44,1.12-.8l-1.9.35Z"/>
    <path d="m86.46,16.96c-.07,0-.13-.03-.18-.08-.1-.1-.09-.26,0-.35l2.49-2.38c.1-.09.26-.09.35,0,.1.1.09.26,0,.35l-2.49,2.38s-.11.07-.17.07Z"/>
    <path d="m89.11,16.39s-1.88-.19-1.88-.19c-.14-.01-.24-.14-.22-.27.01-.14.13-.23.28-.22l1.86.19c.14.01.24.14.22.27-.01.13-.12.22-.25.22Z"/>
    <path d="m82.39,9.48s-.04,0-.06,0l-1.95-.51c-.13-.04-.21-.17-.18-.31.04-.13.17-.21.31-.18l1.95.51c.13.04.21.17.18.31-.03.11-.13.19-.24.19Z"/>
    <path d="m77.9,8.97h-1.46c-.14,0-.25-.11-.25-.25s.11-.25.25-.25h1.46c.14,0,.25.11.25.25s-.11.25-.25.25Z"/>
    <path d="m77.17,15.3c-.1,0-.2-.06-.23-.16-.7-1.92,1.46-3.61,1.56-3.68.11-.08.27-.06.35.05.08.11.06.27-.05.35-.02.02-1.97,1.54-1.39,3.11.05.13-.02.27-.15.32-.03.01-.06.02-.09.02Z"/>
    <path d="m81.21,12.92c-.18-.03-.27-.16-.25-.29l.24-1.37-.64-.59c-.1-.09-.11-.25-.01-.35.1-.1.25-.11.35-.01l.74.68c.06.06.09.14.08.23l-.26,1.5c-.02.12-.13.21-.25.21Z"/>
    <path d="m76.54,12.4c-.18-.03-.27-.16-.25-.29l.24-1.37-.64-.59c-.1-.09-.11-.25-.01-.35.1-.1.25-.11.35-.01l.74.68c.06.06.09.14.08.23l-.26,1.5c-.02.12-.13.21-.25.21Z"/>
  </g>
</svg>